# xmcd
# 
# Track frame offsets:
#     150
#     17726
#     29764
#     59230
#     75102
#     94701
#     119484
#     137478
#     152421
# 
# Disc length: 2491
# 
# Revision: 1
# Processed by: cddbd v1.5.2PL0 Copyright (c) Steve Scherf et al.
# Submitted via: fre:ac v1.0.31
# 
DISCID=6c09b909
DTITLE=Savoy Brown - Getting To The Point
DYEAR=1968
DGENRE=Blues
TTITLE0=Flood in Houston
TTITLE1=Stay With Me Baby
TTITLE2=Honey Bee
TTITLE3=The Incredible Gnome Meets Jaxman
TTITLE4=Give Me a Penny
TTITLE5=Mr. Downchild
TTITLE6=Getting to the Point
TTITLE7=Big City Lights
TTITLE8=You Need Love
EXTD=
EXTT0=
EXTT1=
EXTT2=
EXTT3=
EXTT4=
EXTT5=
EXTT6=
EXTT7=
EXTT8=
PLAYORDER=
